<?xml version="1.0" encoding="UTF-8"?>
<svg width="69px" height="45px" viewBox="0 0 69 45" version="1.1" xmlns="http://www.w3.org/2000/svg" xmlns:xlink="http://www.w3.org/1999/xlink">
    <!-- Generator: sketchtool 52.4 (67378) - http://www.bohemiancoding.com/sketch -->
    <title>50826811-6463-4D72-9CA5-067A210EACD9</title>
    <desc>Created with sketchtool.</desc>
    <defs>
        <linearGradient x1="49.9856973%" y1="33.3072198%" x2="49.9856973%" y2="100%" id="linearGradient-1">
            <stop stop-color="#01DEFF" offset="0%"></stop>
            <stop stop-color="#00B6D3" offset="32.4611624%"></stop>
            <stop stop-color="#007C92" offset="100%"></stop>
        </linearGradient>
        <linearGradient x1="49.9886192%" y1="50%" x2="49.9886192%" y2="105.838494%" id="linearGradient-2">
            <stop stop-color="#E89700" offset="0%"></stop>
            <stop stop-color="#FFB135" offset="23.09%"></stop>
            <stop stop-color="#E04DE4" offset="88.412211%"></stop>
            <stop stop-color="#A02A83" offset="100%"></stop>
        </linearGradient>
    </defs>
    <g id="Page-1" stroke="none" stroke-width="1" fill="none" fill-rule="evenodd">
        <g id="02_DO_DS_Branding" transform="translate(-688.000000, -1086.000000)" fill-rule="nonzero">
            <g id="Group-3" transform="translate(251.000000, 142.000000)">
                <g id="fingertips-logo" transform="translate(435.000000, 929.000000)">
                    <g id="Layer_1">
                        <g id="Group">
                            <g id="Page-1">
                                <g id="GRAPHS">
                                    <g transform="translate(2.018404, 15.284043)" id="LIKES_GRAPH">
                                        <g>
                                            <g id="Group-6">
                                                <path d="M63.0833351,3.10897436 C61.3412677,3.90534166 56.5022032,8.31783518 53.2804074,15.9177078 C49.7565683,24.2222044 46.4340914,31.9730678 40.9973111,31.9730678 C35.3088279,31.9730678 32.0870321,26.7387185 29.3183014,22.2089931 C27.1033168,18.6858733 25.0896944,15.2130838 22.4719854,15.2130838 C20.005298,15.2130838 17.48827,19.1388459 14.7195393,23.4169198 C10.5916134,29.6578748 9.85854225,34.4340055 1.65303114,34.4340055 C0.797241638,34.4340055 0.193154931,33.8300421 0.193154931,32.9744273 C0.193154931,32.1188125 0.797241638,31.5148491 1.65303114,31.5148491 C8.24764436,31.5148491 8.27594774,27.896315 12.2025113,21.9573417 C15.5753288,16.8236529 18.3440595,12.4449183 22.4216448,12.4449183 C26.8012734,12.4449183 29.2679608,16.672662 31.7849888,20.7494149 C34.3020167,24.8261677 36.9197258,29.0539115 40.9973111,29.0539115 C44.5211502,29.0539115 47.742946,21.4540388 50.6626984,14.7601113 C54.4382403,6.0026422 59.2770263,0.669719351 63.0833351,0.189817988 C66.889644,-0.290083375 64.8254026,2.31260706 63.0833351,3.10897436 Z" id="Shape" fill="url(#linearGradient-1)"></path>
                                                <path d="M67.1773392,36.0559008 C66.6813168,36.2429587 63.4938695,34.7412333 59.4162843,26.3864065 C56.3455102,19.6421487 53.8341536,13.9548268 50.0586117,13.9548268 C46.3837509,13.9548268 43.4639984,20.7997452 40.544246,27.544003 C37.0204069,35.8484996 33.3958867,44.3543173 26.8012734,44.3543173 C20.6597252,44.3543173 17.1358861,35.2948665 12.9072792,24.9268283 C8.82969388,14.5587902 6.80432446,6.94013467 4.12304957,5.55561531 C3.46080344,5.21365388 2.66317336,4.95165192 2.66317336,4.09603712 C2.66317336,3.24042232 3.27813344,2.5506788 4.12304957,2.63645894 C10.0719603,3.24042232 11.0446785,12.2435972 15.7263505,23.9202227 C19.2501896,32.5267009 22.7236882,41.4351609 26.851614,41.4351609 C31.533286,41.4351609 34.7550817,33.8352883 37.9768775,26.3864065 C41.349695,18.4845522 44.5714907,11.0356704 50.1089522,11.0356704 C55.6464137,11.0356704 57.8542143,16.0183684 61.4787345,23.9202227 C65.0025736,31.3691044 67.5366784,31.3916557 68.507342,33.346528 C69.4780056,35.3014004 67.6733616,35.8688429 67.1773392,36.0559008 Z" id="Shape" fill="url(#linearGradient-2)"></path>
                                            </g>
                                        </g>
                                    </g>
                                </g>
                            </g>
                        </g>
                    </g>
                </g>
            </g>
        </g>
    </g>
</svg>