<?xml version="1.0" encoding="UTF-8"?>
<svg width="260px" height="73px" viewBox="0 0 260 73" version="1.1" xmlns="http://www.w3.org/2000/svg" xmlns:xlink="http://www.w3.org/1999/xlink">
    <!-- Generator: sketchtool 52.4 (67378) - http://www.bohemiancoding.com/sketch -->
    <title>AE276EA1-732C-4787-90B4-6C45DF1AD2AF</title>
    <desc>Created with sketchtool.</desc>
    <defs>
        <circle id="path-1" cx="36.4485492" cy="36.4485492" r="36.4485492"></circle>
        <linearGradient x1="49.9856973%" y1="33.3072198%" x2="49.9856973%" y2="100%" id="linearGradient-3">
            <stop stop-color="#01DEFF" offset="0%"></stop>
            <stop stop-color="#00B6D3" offset="32.4611624%"></stop>
            <stop stop-color="#007C92" offset="100%"></stop>
        </linearGradient>
        <linearGradient x1="49.9886192%" y1="50%" x2="49.9886192%" y2="105.838494%" id="linearGradient-4">
            <stop stop-color="#E89700" offset="0%"></stop>
            <stop stop-color="#FFB135" offset="23.09%"></stop>
            <stop stop-color="#E04DE4" offset="88.412211%"></stop>
            <stop stop-color="#A02A83" offset="100%"></stop>
        </linearGradient>
    </defs>
    <g id="Page-1" stroke="none" stroke-width="1" fill="none" fill-rule="evenodd">
        <g id="02_DO_DS_Branding" transform="translate(-291.000000, -1071.000000)">
            <g id="Group-3" transform="translate(251.000000, 142.000000)">
                <g id="fingertipslogo" transform="translate(40.000000, 929.000000)">
                    <g id="fingertips-logo-horizontal">
                        <g id="Layer_1">
                            <g id="Group">
                                <g id="Page-1">
                                    <g id="GRAPHS">
                                        <mask id="mask-2" fill="white">
                                            <use xlink:href="#path-1"></use>
                                        </mask>
                                        <use id="Mask" fill="#FFFFFF" opacity="0.332477679" xlink:href="#path-1"></use>
                                        <g mask="url(#mask-2)" id="LIKES_GRAPH">
                                            <g transform="translate(1.518690, 15.186896)">
                                                <g>
                                                    <g id="Group-6" fill-rule="nonzero">
                                                        <path d="M63.1692541,3.08921328 C61.4382595,3.88051876 56.6299528,8.26496586 53.4286352,15.8165326 C49.9271941,24.0682446 46.6258353,31.7698425 41.2236119,31.7698425 C35.5712855,31.7698425 32.369968,26.5687634 29.6188357,22.0678296 C27.4179298,18.5671033 25.4171063,15.1163874 22.8160358,15.1163874 C20.365027,15.1163874 17.8639976,19.0171967 15.1128653,23.2680786 C11.0111772,29.4693652 10.2827655,34.2151381 2.12940974,34.2151381 C1.27905975,34.2151381 0.678812703,33.6150136 0.678812703,32.7648372 C0.678812703,31.9146608 1.27905975,31.3145363 2.12940974,31.3145363 C8.68210668,31.3145363 8.71023015,27.7190021 12.611836,21.8177777 C15.9632153,16.7167194 18.7143476,12.3658167 22.7660152,12.3658167 C27.1178063,12.3658167 29.5688151,16.5666883 32.0698444,20.6175287 C34.5708738,24.6683692 37.1719443,28.8692407 41.2236119,28.8692407 C44.725053,28.8692407 47.9263706,21.317674 50.8275647,14.666294 C54.5791087,5.96448856 59.3871388,0.665462521 63.1692541,0.188611478 C66.9513695,-0.288239565 64.9002488,2.2979078 63.1692541,3.08921328 Z" id="Shape" fill="url(#linearGradient-3)"></path>
                                                        <path d="M67.2372362,35.8267245 C66.7443665,36.0125934 63.5771791,34.5204132 59.5255115,26.2186908 C56.4742557,19.5173004 53.9788617,13.866128 50.2273176,13.866128 C46.5758148,13.866128 43.6746207,20.6675391 40.7734266,27.3689295 C37.2719855,35.6206415 33.6705032,44.072395 27.1178063,44.072395 C21.0152946,44.072395 17.5138535,35.0705274 13.3121242,24.7683899 C9.26045661,14.4662525 7.24796071,6.89602221 4.58372838,5.52030304 C3.92569158,5.18051517 3.13313135,4.92017853 3.13313135,4.07000214 C3.13313135,3.21982575 3.74418265,2.53446632 4.58372838,2.61970124 C10.494827,3.21982575 11.4613625,12.1657752 16.1132771,23.7681824 C19.6147182,32.3199567 23.0661387,41.1717932 27.1678269,41.1717932 C31.8197415,41.1717932 35.0210591,33.6202265 38.2223767,26.2186908 C41.573756,18.3670618 44.7750736,10.9655262 50.2773382,10.9655262 C55.7796028,10.9655262 57.9733703,15.9165534 61.5748526,23.7681824 C65.0762937,31.169718 67.5942913,31.1921259 68.5587853,33.1345729 C69.5232792,35.0770198 67.7301058,35.6408555 67.2372362,35.8267245 Z" id="Shape" fill="url(#linearGradient-4)"></path>
                                                    </g>
                                                </g>
                                            </g>
                                        </g>
                                    </g>
                                </g>
                            </g>
                        </g>
                        <text id="fingertips" font-family="VodafoneLt-Regular, Vodafone Lt" font-size="51.0279689" font-weight="normal" fill="#3A3A3A">
                            <tspan x="82.6167116" y="49.6448549">fingertips</tspan>
                        </text>
                    </g>
                </g>
            </g>
        </g>
    </g>
</svg>